<svg xmlns="http://www.w3.org/2000/svg" xmlns:xlink="http://www.w3.org/1999/xlink" width="600" zoomAndPan="magnify" viewBox="0 0 450 449.999984" height="600" preserveAspectRatio="xMidYMid meet" version="1.0"><defs><clipPath id="d4ca25ddca"><path d="M 154.960938 181.125 L 295.210938 181.125 L 295.210938 268.875 L 154.960938 268.875 Z M 154.960938 181.125 " clip-rule="nonzero"/></clipPath></defs><path fill="#ffffff" d="M 405 225 C 405 227.945312 404.925781 230.890625 404.78125 233.832031 C 404.636719 236.773438 404.421875 239.710938 404.132812 242.644531 C 403.84375 245.574219 403.484375 248.496094 403.050781 251.410156 C 402.621094 254.324219 402.117188 257.226562 401.542969 260.117188 C 400.964844 263.003906 400.320312 265.878906 399.605469 268.738281 C 398.890625 271.59375 398.105469 274.433594 397.25 277.25 C 396.394531 280.070312 395.46875 282.867188 394.476562 285.640625 C 393.484375 288.414062 392.425781 291.160156 391.296875 293.882812 C 390.171875 296.605469 388.976562 299.296875 387.71875 301.960938 C 386.457031 304.621094 385.132812 307.253906 383.746094 309.851562 C 382.355469 312.449219 380.90625 315.011719 379.390625 317.539062 C 377.875 320.066406 376.300781 322.554688 374.664062 325.003906 C 373.027344 327.453125 371.332031 329.859375 369.578125 332.226562 C 367.824219 334.59375 366.011719 336.914062 364.140625 339.191406 C 362.273438 341.46875 360.347656 343.699219 358.371094 345.878906 C 356.394531 348.0625 354.363281 350.195312 352.277344 352.277344 C 350.195312 354.363281 348.0625 356.394531 345.878906 358.371094 C 343.699219 360.347656 341.46875 362.273438 339.191406 364.140625 C 336.914062 366.011719 334.59375 367.824219 332.226562 369.578125 C 329.859375 371.332031 327.453125 373.027344 325.003906 374.664062 C 322.554688 376.300781 320.066406 377.875 317.539062 379.390625 C 315.011719 380.90625 312.449219 382.355469 309.851562 383.746094 C 307.253906 385.132812 304.621094 386.457031 301.960938 387.71875 C 299.296875 388.976562 296.605469 390.171875 293.882812 391.296875 C 291.160156 392.425781 288.414062 393.484375 285.640625 394.476562 C 282.867188 395.46875 280.070312 396.394531 277.25 397.25 C 274.433594 398.105469 271.59375 398.890625 268.738281 399.605469 C 265.878906 400.320312 263.003906 400.964844 260.117188 401.542969 C 257.226562 402.117188 254.324219 402.621094 251.410156 403.050781 C 248.496094 403.484375 245.574219 403.84375 242.644531 404.132812 C 239.710938 404.421875 236.773438 404.636719 233.832031 404.78125 C 230.890625 404.925781 227.945312 405 225 405 C 222.054688 405 219.109375 404.925781 216.167969 404.78125 C 213.226562 404.636719 210.289062 404.421875 207.355469 404.132812 C 204.425781 403.84375 201.503906 403.484375 198.589844 403.050781 C 195.675781 402.621094 192.773438 402.117188 189.882812 401.542969 C 186.996094 400.964844 184.121094 400.320312 181.261719 399.605469 C 178.40625 398.890625 175.566406 398.105469 172.75 397.25 C 169.929688 396.394531 167.132812 395.46875 164.359375 394.476562 C 161.585938 393.484375 158.839844 392.425781 156.117188 391.296875 C 153.394531 390.171875 150.703125 388.976562 148.039062 387.71875 C 145.378906 386.457031 142.746094 385.132812 140.148438 383.746094 C 137.550781 382.355469 134.988281 380.90625 132.460938 379.390625 C 129.933594 377.875 127.445312 376.300781 124.996094 374.664062 C 122.546875 373.027344 120.140625 371.332031 117.773438 369.578125 C 115.40625 367.824219 113.085938 366.011719 110.808594 364.140625 C 108.53125 362.273438 106.300781 360.347656 104.121094 358.371094 C 101.9375 356.394531 99.804688 354.363281 97.722656 352.277344 C 95.636719 350.195312 93.605469 348.0625 91.628906 345.878906 C 89.652344 343.699219 87.726562 341.46875 85.859375 339.191406 C 83.988281 336.914062 82.175781 334.59375 80.421875 332.226562 C 78.667969 329.859375 76.972656 327.453125 75.335938 325.003906 C 73.699219 322.554688 72.125 320.066406 70.609375 317.539062 C 69.09375 315.011719 67.644531 312.449219 66.253906 309.851562 C 64.867188 307.253906 63.542969 304.621094 62.28125 301.960938 C 61.023438 299.296875 59.828125 296.605469 58.703125 293.882812 C 57.574219 291.160156 56.515625 288.414062 55.523438 285.640625 C 54.53125 282.867188 53.605469 280.070312 52.75 277.25 C 51.894531 274.433594 51.109375 271.59375 50.394531 268.738281 C 49.679688 265.878906 49.035156 263.003906 48.457031 260.117188 C 47.882812 257.226562 47.378906 254.324219 46.949219 251.410156 C 46.515625 248.496094 46.15625 245.574219 45.867188 242.644531 C 45.578125 239.710938 45.363281 236.773438 45.21875 233.832031 C 45.074219 230.890625 45 227.945312 45 225 C 45 222.054688 45.074219 219.109375 45.21875 216.167969 C 45.363281 213.226562 45.578125 210.289062 45.867188 207.355469 C 46.15625 204.425781 46.515625 201.503906 46.949219 198.589844 C 47.378906 195.675781 47.882812 192.773438 48.457031 189.882812 C 49.035156 186.996094 49.679688 184.121094 50.394531 181.261719 C 51.109375 178.40625 51.894531 175.566406 52.75 172.75 C 53.605469 169.929688 54.53125 167.132812 55.523438 164.359375 C 56.515625 161.585938 57.574219 158.839844 58.703125 156.117188 C 59.828125 153.394531 61.023438 150.703125 62.28125 148.039062 C 63.542969 145.378906 64.867188 142.746094 66.253906 140.148438 C 67.644531 137.550781 69.09375 134.988281 70.609375 132.460938 C 72.125 129.933594 73.699219 127.445312 75.335938 124.996094 C 76.972656 122.546875 78.667969 120.140625 80.421875 117.773438 C 82.175781 115.40625 83.988281 113.085938 85.859375 110.808594 C 87.726562 108.53125 89.652344 106.300781 91.628906 104.121094 C 93.605469 101.9375 95.636719 99.804688 97.722656 97.722656 C 99.804688 95.636719 101.9375 93.605469 104.121094 91.628906 C 106.300781 89.652344 108.53125 87.726562 110.808594 85.859375 C 113.085938 83.988281 115.40625 82.175781 117.773438 80.421875 C 120.140625 78.667969 122.546875 76.972656 124.996094 75.335938 C 127.445312 73.699219 129.933594 72.125 132.460938 70.609375 C 134.988281 69.09375 137.550781 67.644531 140.148438 66.253906 C 142.746094 64.867188 145.378906 63.542969 148.039062 62.28125 C 150.703125 61.023438 153.394531 59.828125 156.117188 58.703125 C 158.839844 57.574219 161.585938 56.515625 164.359375 55.523438 C 167.132812 54.53125 169.929688 53.605469 172.75 52.75 C 175.566406 51.894531 178.40625 51.109375 181.261719 50.394531 C 184.121094 49.679688 186.996094 49.035156 189.882812 48.457031 C 192.773438 47.882812 195.675781 47.378906 198.589844 46.949219 C 201.503906 46.515625 204.425781 46.15625 207.355469 45.867188 C 210.289062 45.578125 213.226562 45.363281 216.167969 45.21875 C 219.109375 45.074219 222.054688 45 225 45 C 227.945312 45 230.890625 45.074219 233.832031 45.21875 C 236.773438 45.363281 239.710938 45.578125 242.644531 45.867188 C 245.574219 46.15625 248.496094 46.515625 251.410156 46.949219 C 254.324219 47.378906 257.226562 47.882812 260.117188 48.457031 C 263.003906 49.035156 265.878906 49.679688 268.738281 50.394531 C 271.59375 51.109375 274.433594 51.894531 277.25 52.75 C 280.070312 53.605469 282.867188 54.53125 285.640625 55.523438 C 288.414062 56.515625 291.160156 57.574219 293.882812 58.703125 C 296.605469 59.828125 299.296875 61.023438 301.960938 62.28125 C 304.621094 63.542969 307.253906 64.867188 309.851562 66.253906 C 312.449219 67.644531 315.011719 69.09375 317.539062 70.609375 C 320.066406 72.125 322.554688 73.699219 325.003906 75.335938 C 327.453125 76.972656 329.859375 78.667969 332.226562 80.421875 C 334.59375 82.175781 336.914062 83.988281 339.191406 85.859375 C 341.46875 87.726562 343.699219 89.652344 345.878906 91.628906 C 348.0625 93.605469 350.195312 95.636719 352.277344 97.722656 C 354.363281 99.804688 356.394531 101.9375 358.371094 104.121094 C 360.347656 106.300781 362.273438 108.53125 364.140625 110.808594 C 366.011719 113.085938 367.824219 115.40625 369.578125 117.773438 C 371.332031 120.140625 373.027344 122.546875 374.664062 124.996094 C 376.300781 127.445312 377.875 129.933594 379.390625 132.460938 C 380.90625 134.988281 382.355469 137.550781 383.746094 140.148438 C 385.132812 142.746094 386.457031 145.378906 387.71875 148.039062 C 388.976562 150.703125 390.171875 153.394531 391.296875 156.117188 C 392.425781 158.839844 393.484375 161.585938 394.476562 164.359375 C 395.46875 167.132812 396.394531 169.929688 397.25 172.75 C 398.105469 175.566406 398.890625 178.40625 399.605469 181.261719 C 400.320312 184.121094 400.964844 186.996094 401.542969 189.882812 C 402.117188 192.773438 402.621094 195.675781 403.050781 198.589844 C 403.484375 201.503906 403.84375 204.425781 404.132812 207.355469 C 404.421875 210.289062 404.636719 213.226562 404.78125 216.167969 C 404.925781 219.109375 405 222.054688 405 225 Z M 405 225 " fill-opacity="1" fill-rule="nonzero"/><g clip-path="url(#d4ca25ddca)"><path fill="#ffffff" d="M 171.496094 268.46875 L 225.085938 214.820312 L 278.671875 268.46875 L 295.210938 251.914062 L 225.085938 181.710938 L 154.960938 251.914062 Z M 171.496094 268.46875 " fill-opacity="1" fill-rule="nonzero"/></g></svg>